<?xml version="1.0" encoding="utf-8"?>
<!-- Generator: Adobe Illustrator 19.0.0, SVG Export Plug-In . SVG Version: 6.00 Build 0)  -->
<svg version="1.1" id="Layer_1" xmlns="http://www.w3.org/2000/svg" xmlns:xlink="http://www.w3.org/1999/xlink" x="0px" y="0px"
	 viewBox="0 0 512 512" style="enable-background:new 0 0 512 512;" xml:space="preserve">
<g id="XMLID_1_">
	<path id="XMLID_6_" d="M462.8,0H48.3C22.3,0,0,21.4,0,48.3v415.4c0,26,21.4,48.3,48.3,48.3h415.4c26,0,48.3-21.4,48.3-48.3V48.3
		C511.1,21.4,489.7,0,462.8,0z M191.4,383.8c-70.6,0-128.2-56.7-128.2-128.2s56.7-128.2,128.2-128.2c34.4,0,63.2,13,85.5,33.5
		l-34.4,33.5c-9.3-9.3-26-19.5-51.1-19.5c-43.7,0-79,36.2-79,80.8s35.3,80.8,79,80.8c50.2,0,69.7-36.2,72.5-54.8h-72.5V237h120.8
		c0.9,6.5,1.9,13,1.9,21.4C314.1,331.7,265.8,383.8,191.4,383.8L191.4,383.8z M447,255.5h-31.6v31.6h-31.6v-31.6h-31.6v-31.6h31.6
		v-31.6h31.6v31.6H447V255.5z"/>
</g>
</svg>
