<svg xmlns="http://www.w3.org/2000/svg" width="16.305" height="16.771" viewBox="0 0 16.305 16.771"><defs><style>.a{fill:#676767;}</style></defs><path class="a" d="M19.154,7.708h-.88V4.692c0-1.984-2.322-3.972-4.636-3.972H9.773C7.46.72,5.23,2.708,5.23,4.692V7.708H4.256a.815.815,0,0,0-.656.58v8.894c0,.209.38.308.656.308h14.9c.277,0,.75-.1.75-.308V8.287c0-.209-.473-.58-.75-.58Zm-5.481,8.385H9.739l.825-3.482a1.732,1.732,0,0,1-.825-1.434,1.866,1.866,0,0,1,1.967-1.71,1.824,1.824,0,0,1,1.967,1.653,1.85,1.85,0,0,1-.825,1.5Zm1.747-8.385H8.084V4.692A1.553,1.553,0,0,1,9.812,3.166H13.6a1.637,1.637,0,0,1,1.822,1.526Z" transform="translate(-3.6 -0.72)"/></svg>